<svg width="37" height="50" viewBox="0 0 37 50" fill="none" xmlns="http://www.w3.org/2000/svg">
<path d="M1.15557 48.6704C0.990778 48.6704 0.834422 48.6069 0.720333 48.4886C0.602019 48.3745 0.538666 48.2142 0.538666 48.0494V10.5142C0.538666 10.341 0.610491 10.1719 0.741482 10.0578L10.1517 1.4884C10.2658 1.38276 10.4137 1.32788 10.57 1.32788H35.4624C35.8046 1.32788 36.0836 1.60685 36.0836 1.94912V48.0155C36.0836 48.3578 35.8047 48.6323 35.4666 48.6366L1.15557 48.6704ZM1.77671 10.7888V47.4323L34.8412 47.3943V2.56603H10.8066L1.77671 10.7888Z" fill="white" stroke="white" stroke-width="0.8451" stroke-miterlimit="10" stroke-linecap="round" stroke-linejoin="round"/>
<path d="M27.5695 34.2198H9.4801C9.13783 34.2198 8.85896 33.9408 8.85896 33.5985C8.85896 33.2563 9.13783 32.9773 9.4801 32.9773H27.5695C27.9118 32.9773 28.1906 33.2563 28.1906 33.5985C28.1906 33.9408 27.9118 34.2198 27.5695 34.2198Z" fill="white" stroke="white" stroke-width="0.8451" stroke-miterlimit="10" stroke-linecap="round" stroke-linejoin="round"/>
<path d="M19.4904 41.618H9.48436C9.14209 41.618 8.86322 41.339 8.86322 40.9968C8.86322 40.6545 9.14209 40.3757 9.48436 40.3757H19.4904C19.8326 40.3757 20.1115 40.6545 20.1115 40.9968C20.1073 41.339 19.8326 41.618 19.4904 41.618Z" fill="white" stroke="white" stroke-width="0.8451" stroke-miterlimit="10" stroke-linecap="round" stroke-linejoin="round"/>
<path d="M1.15587 11.135C0.8136 11.135 0.538955 10.8603 0.534729 10.5181C0.534729 10.1758 0.80937 9.89694 1.15164 9.89271L9.94493 9.84196V1.94452C9.94493 1.60225 10.2238 1.32349 10.5661 1.32349C10.9083 1.32349 11.1872 1.60225 11.1872 1.94452V10.4589C11.1872 10.8011 10.9126 11.0759 10.5703 11.0801L1.15587 11.135C1.16009 11.135 1.16009 11.135 1.15587 11.135Z" fill="white"/>
<path d="M1.15587 11.135C0.8136 11.135 0.538955 10.8603 0.534729 10.5181C0.534729 10.1758 0.80937 9.89694 1.15164 9.89271L9.94493 9.84196V1.94452C9.94493 1.60225 10.2238 1.32349 10.5661 1.32349C10.9083 1.32349 11.1872 1.60225 11.1872 1.94452V10.4589C11.1872 10.8011 10.9126 11.0759 10.5703 11.0801L1.15587 11.135ZM1.15587 11.135C1.16009 11.135 1.16009 11.135 1.15587 11.135Z" stroke="white" stroke-width="0.8451" stroke-miterlimit="10" stroke-linecap="round" stroke-linejoin="round"/>
<path d="M28.0048 20.5665H9.48436C9.14209 20.5665 8.86322 20.2875 8.86322 19.9453C8.86322 19.603 9.14209 19.3242 9.48436 19.3242H28.0048C28.347 19.3242 28.6259 19.603 28.6259 19.9453C28.6259 20.2875 28.347 20.5665 28.0048 20.5665Z" fill="white" stroke="white" stroke-width="0.8451" stroke-miterlimit="10" stroke-linecap="round" stroke-linejoin="round"/>
<path d="M24.337 27.9649H9.4801C9.13783 27.9649 8.85896 27.6862 8.85896 27.3439C8.85896 27.0016 9.13783 26.7227 9.4801 26.7227H24.337C24.6792 26.7227 24.9581 27.0016 24.9581 27.3439C24.9581 27.6862 24.6792 27.9649 24.337 27.9649Z" fill="white" stroke="white" stroke-width="0.8451" stroke-miterlimit="10" stroke-linecap="round" stroke-linejoin="round"/>
</svg>
