<svg width="34" height="35" viewBox="0 0 34 35" fill="none" xmlns="http://www.w3.org/2000/svg">
<path d="M16.9039 34.3877C26.0052 34.3877 33.3833 27.0096 33.3833 17.9082C33.3833 8.80687 26.0052 1.42877 16.9039 1.42877C7.80254 1.42877 0.424438 8.80687 0.424438 17.9082C0.424438 27.0096 7.80254 34.3877 16.9039 34.3877Z" fill="#F2F2F2" stroke="#636267" stroke-width="0.42255" stroke-miterlimit="10"/>
<path d="M18.8894 6.99653V11.6297L18.3069 19.2811H16.1624L15.58 11.6297V6.99653H18.8894ZM17.2214 21.7698C18.254 21.7698 19.0218 22.5376 19.0218 23.6496C19.0218 24.7615 18.254 25.5823 17.2214 25.5823C16.1624 25.5823 15.3946 24.7615 15.3946 23.6496C15.3946 22.5376 16.1624 21.7698 17.2214 21.7698Z" fill="#636267"/>
</svg>
