<svg width="32" height="38" viewBox="0 0 32 38" fill="none" xmlns="http://www.w3.org/2000/svg">
<path d="M28.941 13.0277C28.6072 13.2517 28.2522 13.467 27.8719 13.6698L27.8677 13.6744C26.1479 14.6082 24.0098 15.3349 21.6097 15.7743C20.1604 16.0405 18.6181 16.2054 17.0124 16.2476C16.5434 16.2603 16.1673 16.6405 16.1673 17.1138C16.1673 17.9546 16.1673 19.3659 16.1673 21.0772C16.1673 25.7887 16.1673 32.7947 16.1673 36.6357C16.1673 37.485 17.2617 37.8272 17.7476 37.13L22.3365 30.5297C27.0733 29.3128 30.3439 26.7437 30.3439 23.7689L31.7214 12.7785C31.8185 12.0179 30.9481 11.5148 30.3396 11.9796L28.941 13.0277Z" fill="white"/>
<path d="M14.8194 17.2107C14.8194 16.7544 14.4687 16.3784 14.0124 16.3446C6.42758 15.8248 0.51611 12.6009 0.0977855 8.62891H0.0386353L1.99081 24.1915H2.00349C2.24012 27.8085 7.29804 30.7706 13.8814 31.3368C14.3842 31.3791 14.8194 30.9778 14.8194 30.4707V17.2107Z" fill="white"/>
<mask id="mask0_1_701" style="mask-type:luminance" maskUnits="userSpaceOnUse" x="0" y="0" width="19" height="15">
<path d="M0.0723877 7.94517C0.0723877 10.7636 3.82463 13.1933 9.25017 14.3342C11.3038 13.7426 13.6616 13.4045 16.1673 13.4045C16.5814 13.4045 16.9913 13.4131 17.3969 13.4342C17.8786 13.4553 18.2885 13.0833 18.3054 12.5973L18.6899 1.80994C18.7068 1.33668 18.3392 0.935311 17.866 0.909958C17.3082 0.884605 16.742 0.871582 16.1673 0.871582C7.28109 0.875808 0.0723877 4.04081 0.0723877 7.94517Z" fill="white"/>
</mask>
<g mask="url(#mask0_1_701)">
<path d="M18.7069 0.875488H0.0724487V14.3335H18.7069V0.875488Z" fill="white"/>
</g>
</svg>
