<svg width="18" height="17" viewBox="0 0 18 17" fill="none" xmlns="http://www.w3.org/2000/svg">
<path d="M13.4113 3.01904C12.8831 3.01904 12.4563 3.44572 12.4563 3.97391C12.4563 4.50209 12.8831 4.92918 13.4113 4.92918C13.9395 4.92918 14.3662 4.50209 14.3662 3.97391C14.3705 3.44572 13.9395 3.01904 13.4113 3.01904Z" fill="white"/>
<path d="M9.16462 4.24463C6.95045 4.24463 5.15039 6.04469 5.15039 8.25885C5.15039 10.473 6.95045 12.2731 9.16462 12.2731C11.3788 12.2731 13.1788 10.473 13.1788 8.25885C13.1788 6.04469 11.3788 4.24463 9.16462 4.24463ZM9.16462 10.828C7.74485 10.828 6.59548 9.6744 6.59548 8.25885C6.59548 6.83909 7.74907 5.68972 9.16462 5.68972C10.5802 5.68972 11.7337 6.84331 11.7337 8.25885C11.7379 9.6744 10.5844 10.828 9.16462 10.828Z" fill="white"/>
<path d="M12.3505 16.4049H5.84325C3.14316 16.4049 0.945862 14.2076 0.945862 11.5118V5.00473C0.945862 2.30464 3.14316 0.111572 5.84325 0.111572H12.3505C15.0506 0.111572 17.2479 2.30887 17.2479 5.00473V11.5118C17.2479 14.2119 15.0506 16.4049 12.3505 16.4049ZM5.84325 1.64125C3.98826 1.64125 2.47972 3.14974 2.47972 5.00473V11.5118C2.47972 13.3668 3.98826 14.8752 5.84325 14.8752H12.3505C14.2055 14.8752 15.714 13.3668 15.714 11.5118V5.00473C15.714 3.14974 14.2055 1.64125 12.3505 1.64125H5.84325Z" fill="white"/>
</svg>
