<svg width="107" height="116" viewBox="0 0 107 116" fill="none" xmlns="http://www.w3.org/2000/svg">
<path d="M19.8916 106.568C19.8916 109.668 17.9549 111.477 14.589 111.477H12.2384V115.123H8.79858V101.946H14.589C17.9549 101.946 19.8916 103.636 19.8916 106.568ZM12.2384 104.691V108.732H14.4166C15.8063 108.732 16.6145 108.017 16.6145 106.682C16.6145 105.386 15.8063 104.691 14.4166 104.691H12.2384Z" fill="white"/>
<path d="M34.6264 109.594C34.6264 113.073 32.2954 115.271 28.5944 115.271C24.8738 115.271 22.4836 113.073 22.4836 109.594V101.946H25.9234V109.594C25.9234 111.284 27.0519 112.339 28.6092 112.339C30.132 112.339 31.1817 111.304 31.1817 109.594V101.946H34.6214V109.594H34.6264ZM31.8814 99.7627L29.4174 101.941H26.8795L28.8901 98.7081L31.8814 99.7627Z" fill="white"/>
<path d="M49.2283 105.272C49.2283 106.642 48.3462 107.751 46.9565 108.131C48.6271 108.471 49.662 109.767 49.662 111.457C49.662 113.714 47.6908 115.123 44.5861 115.123H38.0811V101.946H44.3397C47.3261 101.946 49.2283 103.242 49.2283 105.272ZM41.5011 104.632V107.189H44.1524C45.0937 107.189 45.6949 106.701 45.6949 105.874C45.6949 105.085 45.0937 104.632 44.1524 104.632H41.5011ZM41.5011 109.673V112.457H44.1524C45.3549 112.457 46.1088 111.93 46.1088 111.028C46.1088 110.2 45.3549 109.673 44.1524 109.673H41.5011Z" fill="white"/>
<path d="M56.1029 112.191H61.6863V115.123H52.6631V101.946H56.1029V112.191Z" fill="white"/>
<path d="M67.8119 101.946H64.3721V115.123H67.8119V101.946Z" fill="white"/>
<path d="M83.0149 104.109L81.024 106.494C80.1616 105.44 78.9 104.765 77.7518 104.765C75.7214 104.765 74.1789 106.361 74.1789 108.466C74.1789 110.59 75.7214 112.206 77.7518 112.206C78.8409 112.206 80.1024 111.605 81.024 110.664L83.0346 112.827C81.6252 114.31 79.5209 115.271 77.5645 115.271C73.5974 115.271 70.6455 112.379 70.6455 108.505C70.6455 104.71 73.6713 101.852 77.6926 101.852C79.654 101.852 81.6991 102.715 83.0149 104.109Z" fill="white"/>
<path d="M94.2558 112.793H88.559L87.6374 115.123H84.104L89.7614 101.946H93.2948L98.8192 115.123H95.1527L94.2558 112.793ZM93.2406 110.161L91.4369 105.46L89.5939 110.161H93.2406Z" fill="white"/>
<path d="M13.3521 86.3633L11.3611 88.7485C10.4987 87.6939 9.23715 87.0188 8.08892 87.0188C6.05856 87.0188 4.51608 88.6155 4.51608 90.7197C4.51608 92.8437 6.05856 94.4601 8.08892 94.4601C9.17802 94.4601 10.4396 93.8589 11.3611 92.9176L13.3718 95.0811C11.9624 96.5644 9.85809 97.5254 7.90165 97.5254C3.93457 97.5254 0.982666 94.6326 0.982666 90.7592C0.982666 86.9646 4.00849 84.1063 8.02978 84.1063C9.98622 84.1063 12.0363 84.9687 13.3521 86.3633Z" fill="#DF2043"/>
<path d="M27.8799 91.8483C27.8799 95.3275 25.5489 97.5254 21.848 97.5254C18.1273 97.5254 15.7372 95.3275 15.7372 91.8483V84.2H19.177V91.8483C19.177 93.5386 20.3055 94.5932 21.8628 94.5932C23.3855 94.5932 24.4401 93.5583 24.4401 91.8483V84.2H27.8799V91.8483Z" fill="#DF2043"/>
<path d="M41.7277 86.9449H34.7742V89.4089H41.0526V92.1489H34.7742V94.6326H41.915V97.3776H31.3345V84.2H41.7277V86.9449Z" fill="#DF2043"/>
<path d="M55.5213 85.5355L54.2253 88.2607C52.8356 87.4722 51.0664 86.8512 49.9773 86.8512C49.1494 86.8512 48.6073 87.1519 48.6073 87.7531C48.6073 89.9313 55.5411 88.6943 55.5411 93.4302C55.5411 96.116 53.1707 97.4909 50.2385 97.4909C48.0406 97.4909 45.7441 96.6827 44.1671 95.3866L45.5026 92.7008C46.8578 93.8638 48.903 94.6918 50.2779 94.6918C51.2931 94.6918 51.9337 94.3172 51.9337 93.6224C51.9337 91.385 45 92.7402 45 88.0783C45 85.6143 47.0845 84.057 50.2631 84.057C52.1949 84.0521 54.1514 84.6533 55.5213 85.5355Z" fill="#DF2043"/>
<path d="M68.5658 87.0385H64.6185V97.3776H61.1787V87.0385H57.2708V84.2H68.5658V87.0385Z" fill="#DF2043"/>
<path d="M74.5239 84.2H71.0841V97.3776H74.5239V84.2Z" fill="#DF2043"/>
<path d="M91.6045 90.7789C91.6045 94.6326 88.5589 97.5254 84.4785 97.5254C80.3981 97.5254 77.3525 94.6326 77.3525 90.7789C77.3525 86.9449 80.3981 84.1063 84.4785 84.1063C88.5589 84.1063 91.6045 86.9646 91.6045 90.7789ZM80.8909 90.7986C80.8909 92.9423 82.5615 94.5932 84.5179 94.5932C86.4891 94.5932 88.071 92.9374 88.071 90.7986C88.071 88.6598 86.4941 87.0385 84.5179 87.0385C82.5467 87.0385 80.8909 88.6549 80.8909 90.7986ZM87.6571 80.9474L85.1931 83.1256H82.6551L84.6658 79.8928L87.6571 80.9474Z" fill="#DF2043"/>
<path d="M106.64 97.3776H103.634L97.6562 89.4828V97.3776H94.4431V84.2H97.4689L103.447 92.1341V84.2H106.64V97.3776Z" fill="#DF2043"/>
<path d="M79.171 24.536C78.5057 24.9796 77.801 25.4034 77.0519 25.8124L77.0421 25.8173C73.6368 27.6653 69.3937 29.1093 64.6332 29.9865C61.7602 30.5138 58.6999 30.839 55.5164 30.9228C54.585 30.9474 53.8408 31.7063 53.8408 32.6377C53.8408 34.3084 53.8408 37.1026 53.8408 40.498C53.8408 49.8366 53.8408 63.7337 53.8457 71.3476C53.8457 73.033 56.019 73.7081 56.98 72.3283L66.0772 59.2394C75.475 56.8295 81.9504 51.7339 81.9504 45.8351L84.6855 24.0432C84.8728 22.5352 83.1578 21.5398 81.9406 22.4564L79.171 24.536Z" fill="white"/>
<path d="M51.1699 32.8349C51.1699 31.9331 50.4701 31.184 49.5683 31.1199C34.5328 30.09 22.809 23.6983 21.9761 15.8183H21.8628L25.7313 46.6778H25.7559C26.2241 53.8481 36.2576 59.7273 49.3071 60.8459C50.3075 60.9297 51.165 60.1314 51.165 59.131V32.8349H51.1699Z" fill="#DF2043"/>
<path d="M21.9318 14.4582C21.9318 20.0466 29.3682 24.8662 40.1261 27.1233C44.2016 25.9504 48.8734 25.2802 53.8409 25.2802C54.6639 25.2802 55.477 25.2999 56.2803 25.3393C57.2412 25.3837 58.0494 24.6445 58.0839 23.6835L58.8429 2.29577C58.8774 1.35451 58.148 0.556167 57.2067 0.516743C56.0979 0.467462 54.9743 0.4379 53.836 0.4379C36.2182 0.432972 21.9318 6.71131 21.9318 14.4582Z" fill="#DF2043"/>
</svg>
