<svg width="331" height="130" viewBox="0 0 331 130" fill="none" xmlns="http://www.w3.org/2000/svg">
<path d="M158.636 67.3342C158.636 72.9794 155.112 76.2626 148.989 76.2626H144.713V82.9009H138.451V58.9212H148.985C155.112 58.9212 158.636 61.9974 158.636 67.3342ZM144.713 63.9157V71.2681H148.681C151.212 71.2681 152.682 69.9667 152.682 67.5412C152.682 65.1792 151.212 63.9157 148.681 63.9157H144.713Z" fill="#5A0E3F"/>
<path d="M185.451 72.8442C185.451 79.174 181.209 83.1756 174.469 83.1756C167.695 83.1756 163.352 79.174 163.352 72.8442V58.9212H169.614V72.8442C169.614 75.9246 171.667 77.8388 174.507 77.8388C177.279 77.8388 179.193 75.9584 179.193 72.8442V58.9212H185.455V72.8442H185.451ZM180.456 54.9535L175.973 58.9212H171.355L175.014 53.0393L180.456 54.9535Z" fill="#5A0E3F"/>
<path d="M212.025 64.9763C212.025 67.4736 210.419 69.4934 207.884 70.1737C210.927 70.7906 212.811 73.1485 212.811 76.2288C212.811 80.3318 209.219 82.9009 203.574 82.9009H191.739V58.9212H203.13C208.569 58.9212 212.025 61.279 212.025 64.9763ZM197.967 63.8101V68.4624H202.788C204.5 68.4624 205.594 67.575 205.594 66.0665C205.594 64.6298 204.5 63.8101 202.788 63.8101H197.967ZM197.967 72.9794V78.0416H202.788C204.977 78.0416 206.346 77.0824 206.346 75.4429C206.346 73.9386 204.977 72.9794 202.788 72.9794H197.967Z" fill="#5A0E3F"/>
<path d="M224.541 77.5641H234.699V82.9009H218.279V58.9212H224.541V77.5641Z" fill="#5A0E3F"/>
<path d="M245.85 58.9212H239.588V82.9009H245.85V58.9212Z" fill="#5A0E3F"/>
<path d="M273.519 62.8552L269.893 67.199C268.322 65.2848 266.027 64.051 263.94 64.051C260.247 64.051 257.441 66.9581 257.441 70.7907C257.441 74.657 260.247 77.5979 263.94 77.5979C265.921 77.5979 268.216 76.5035 269.893 74.7922L273.553 78.7262C270.988 81.4262 267.155 83.1714 263.597 83.1714C256.38 83.1714 251.01 77.9022 251.01 70.8583C251.01 63.9496 256.515 58.748 263.838 58.748C267.396 58.748 271.123 60.3241 273.519 62.8552Z" fill="#5A0E3F"/>
<path d="M293.97 78.6585H283.605L281.928 82.9009H275.496L285.794 58.9212H292.225L302.282 82.9009H295.61L293.97 78.6585ZM292.124 73.8668L288.84 65.3144L285.49 73.8668H292.124Z" fill="#5A0E3F"/>
<mask id="mask0_1_418" style="mask-type:luminance" maskUnits="userSpaceOnUse" x="0" y="0" width="67" height="48">
<path d="M0.483917 25.1468C0.483917 35.1232 13.7647 43.739 32.9822 47.7659C40.2628 45.6701 48.6039 44.4743 57.4732 44.4743C58.9437 44.4743 60.3931 44.5123 61.8297 44.5757C63.541 44.6559 64.9904 43.3334 65.0538 41.6178L66.4144 3.4193C66.4735 1.73755 65.1763 0.31778 63.4946 0.237495C61.517 0.144534 59.5099 0.098053 57.4774 0.098053C25.9975 0.102278 0.483917 11.3167 0.483917 25.1468Z" fill="white"/>
</mask>
<g mask="url(#mask0_1_418)">
<path d="M66.4735 0.102295H0.483856V47.7659H66.4735V0.102295Z" fill="url(#paint0_linear_1_418)"/>
</g>
<path d="M102.707 43.1517C101.52 43.9418 100.261 44.7066 98.9255 45.4292L98.9086 45.4377C92.8239 48.7378 85.2518 51.3153 76.7416 52.8788C71.6161 53.821 66.1483 54.3999 60.4566 54.5521C58.7917 54.5943 57.4649 55.9507 57.4649 57.6155C57.4649 60.5987 57.4607 65.5891 57.4607 71.6484C57.4607 88.3265 57.4649 113.143 57.4691 126.749C57.4691 129.757 61.3481 130.97 63.0637 128.498L79.315 105.119C96.0944 100.817 107.668 91.7111 107.668 81.1769L112.549 42.2516C112.887 39.5558 109.815 37.7811 107.647 39.4163L102.707 43.1517Z" fill="#5A0E3F"/>
<path d="M52.7026 57.9662C52.7026 56.3521 51.4561 55.0168 49.8462 54.907C22.9931 53.0646 2.0558 41.6473 0.572646 27.5764H0.365601L7.27851 82.6938H7.32499C8.16164 95.4971 26.0778 105.997 49.3856 108C51.173 108.152 52.7069 106.728 52.7069 104.933V57.9662H52.7026Z" fill="#DF2043"/>
<path d="M160.96 30.5596L157.334 34.9035C155.763 32.9893 153.468 31.7555 151.381 31.7555C147.688 31.7555 144.882 34.6626 144.882 38.4951C144.882 42.3615 147.688 45.3024 151.381 45.3024C153.363 45.3024 155.657 44.208 157.334 42.4967L160.994 46.4306C158.429 49.1307 154.596 50.8759 151.038 50.8759C143.821 50.8759 138.451 45.6066 138.451 38.5627C138.451 31.654 143.957 26.4525 151.279 26.4525C154.837 26.4525 158.564 28.0286 160.96 30.5596Z" fill="#DF2043"/>
<path d="M187.399 40.5487C187.399 46.8785 183.157 50.8801 176.417 50.8801C169.643 50.8801 165.3 46.8785 165.3 40.5487V26.6257H171.558V40.5487C171.558 43.6291 173.611 45.5433 176.451 45.5433C179.223 45.5433 181.137 43.6629 181.137 40.5487V26.6257H187.395V40.5487H187.399Z" fill="#DF2043"/>
<path d="M212.604 31.6202H199.949V36.0993H211.374V41.0938H199.949V45.6109H212.946V50.6054H193.686V26.6257H212.604V31.6202Z" fill="#DF2043"/>
<path d="M237.708 29.0553L235.346 34.0161C232.815 32.5794 229.599 31.4512 227.613 31.4512C226.109 31.4512 225.116 31.9963 225.116 33.0949C225.116 37.0627 237.737 34.8063 237.737 43.4263C237.737 48.3194 233.427 50.8167 228.091 50.8167C224.089 50.8167 219.914 49.3462 217.041 46.9841L219.471 42.091C221.934 44.2122 225.661 45.7165 228.158 45.7165C230.005 45.7165 231.167 45.032 231.167 43.7685C231.167 39.6994 218.545 42.1628 218.545 33.678C218.545 29.199 222.344 26.3595 228.124 26.3595C231.653 26.351 235.211 27.4454 237.708 29.0553Z" fill="#DF2043"/>
<path d="M261.447 31.7893H254.263V50.6054H248.001V31.7893H240.885V26.6257H261.447V31.7893Z" fill="#DF2043"/>
<path d="M272.285 26.6257H266.027V50.6054H272.285V26.6257Z" fill="#DF2043"/>
<path d="M303.376 38.5966C303.376 45.6109 297.837 50.8759 290.412 50.8759C282.988 50.8759 277.449 45.6067 277.449 38.5966C277.449 31.6203 282.988 26.4525 290.412 26.4525C297.837 26.4525 303.376 31.6541 303.376 38.5966ZM283.88 38.6304C283.88 42.5305 286.922 45.5391 290.48 45.5391C294.072 45.5391 296.945 42.5305 296.945 38.6304C296.945 34.7303 294.072 31.7893 290.48 31.7893C286.888 31.7893 283.88 34.7303 283.88 38.6304ZM296.193 20.7058L291.714 24.6736H287.095L290.755 18.7917L296.193 20.7058Z" fill="#DF2043"/>
<path d="M330.741 50.6054H325.264L314.388 36.2387V50.6054H308.54V26.6257H314.046L324.922 41.06V26.6257H330.741V50.6054Z" fill="#DF2043"/>
<defs>
<linearGradient id="paint0_linear_1_418" x1="0.465849" y1="23.9507" x2="66.4566" y2="23.9507" gradientUnits="userSpaceOnUse">
<stop stop-color="#5A0E3F"/>
<stop offset="1" stop-color="#DF2043"/>
</linearGradient>
</defs>
</svg>
