<svg width="16" height="19" viewBox="0 0 16 19" fill="none" xmlns="http://www.w3.org/2000/svg">
<path d="M15.2985 7.67837C15.1549 7.69105 15.0154 7.69942 14.8718 7.69942C13.3041 7.69942 11.8421 6.90937 10.9843 5.59946V12.7531C10.9843 15.6729 8.61804 18.0391 5.69821 18.0391C2.77839 18.0391 0.412109 15.6729 0.412109 12.7531C0.412109 9.83328 2.77839 7.4671 5.69821 7.4671C5.80808 7.4671 5.91795 7.47557 6.02359 7.48402V10.087C5.91372 10.0743 5.80808 10.0532 5.69821 10.0532C4.20661 10.0532 3.00229 11.2616 3.00229 12.749C3.00229 14.2364 4.21084 15.4448 5.69821 15.4448C7.18982 15.4448 8.5039 14.2703 8.5039 12.7787L8.52928 0.630371H11.0223C11.2589 2.86566 13.059 4.61061 15.2985 4.77541V7.67837Z" fill="white"/>
</svg>
