<svg width="16" height="13" viewBox="0 0 16 13" fill="none" xmlns="http://www.w3.org/2000/svg">
<path d="M15.3257 1.51295C14.844 1.73268 14.3116 1.86369 13.7918 1.95242C14.0369 1.91017 14.4003 1.46646 14.544 1.28476C14.7637 1.0101 14.9496 0.697334 15.051 0.355069C15.0637 0.329716 15.0721 0.296143 15.0468 0.275015C15.013 0.262339 14.9919 0.270592 14.9665 0.283268C14.3876 0.595955 13.7876 0.820072 13.1495 0.980641C13.0946 0.993317 13.0566 0.980608 13.0228 0.946804C12.9679 0.887647 12.9214 0.832765 12.8622 0.786284C12.596 0.558107 12.3044 0.380521 11.9833 0.245305C11.5565 0.0720592 11.0917 -0.00380169 10.6312 0.0257768C10.1833 0.0553553 9.74802 0.181856 9.35082 0.388906C8.95363 0.595955 8.59871 0.883289 8.3156 1.23401C8.02404 1.59317 7.8085 2.02023 7.69864 2.47236C7.593 2.90758 7.60147 3.33852 7.66485 3.77797C7.67331 3.8498 7.66907 3.86245 7.60146 3.84977C5.10419 3.47793 3.03373 2.58613 1.35621 0.671981C1.28438 0.587471 1.24211 0.587785 1.18295 0.67652C0.447714 1.77938 0.802669 3.5496 1.72383 4.42005C1.84637 4.53414 1.97309 4.65237 2.10831 4.75801C2.05761 4.76646 1.44914 4.70316 0.904054 4.42005C0.83222 4.37357 0.794182 4.39909 0.789957 4.4836C0.781506 4.60191 0.794203 4.71161 0.811105 4.8426C0.950547 5.95813 1.72383 6.99339 2.78443 7.39482C2.9112 7.44975 3.05062 7.49625 3.18583 7.51737C2.94498 7.56808 2.69566 7.60604 2.00267 7.55534C1.91816 7.53843 1.88438 7.581 1.91818 7.66551C2.43792 9.08528 3.56191 9.50357 4.40278 9.74443C4.51687 9.76555 4.6267 9.76529 4.74079 9.79064C4.73234 9.79909 4.72814 9.79901 4.71969 9.81169C4.44081 10.2385 3.47317 10.5515 3.02526 10.7121C2.20552 10.9994 1.31395 11.1259 0.447718 11.0414C0.308277 11.0202 0.278702 11.0245 0.240673 11.0414C0.202643 11.0667 0.236433 11.0966 0.278688 11.1346C0.456159 11.2487 0.633638 11.3544 0.815335 11.4515C1.36465 11.7431 1.9393 11.9755 2.53932 12.1403C5.63239 12.9938 9.11845 12.3681 11.4425 10.0568C13.2679 8.24406 13.9059 5.74261 13.9059 3.24112C13.9059 3.14393 14.02 3.08921 14.0918 3.03851C14.5651 2.68357 14.9496 2.25659 15.3045 1.77911C15.3848 1.67347 15.3849 1.57657 15.3849 1.53854C15.3849 1.53009 15.3849 1.52575 15.3849 1.52575C15.3891 1.47504 15.3848 1.4876 15.3257 1.51295Z" fill="white"/>
</svg>
